STARTFONT 2.1
COMMENT Created by fdbbdf
FONT indice12
SIZE 12 78 78
FONTBOUNDINGBOX 21 18 0 -1
STARTPROPERTIES 4
Ownership "  "
FONT_ASCENT 17
FONT_DESCENT 1
DEFAULT_CHAR 48
ENDPROPERTIES
CHARS 21
STARTCHAR 0
ENCODING -1 48
SWIDTH 0 0
DWIDTH 26 0
BBX 21 18 0 -1
BITMAP
fffff800
fffff800
c0001800
c0001800
c0701800
c0f81800
c18c1800
c18c1800
c18c1800
c18c1800
c18c1800
c18c1800
c0f81800
c0701800
c0001800
c0001800
fffff800
fffff800
ENDCHAR
STARTCHAR 1
ENCODING -1 49
SWIDTH 0 0
DWIDTH 26 0
BBX 21 18 0 -1
BITMAP
fffff800
fffff800
c0001800
c0001800
c0201800
c0e01800
c1601800
c0601800
c0601800
c0601800
c0601800
c0601800
c0601800
c1f81800
c0001800
c0001800
fffff800
fffff800
ENDCHAR
STARTCHAR 2
ENCODING -1 50
SWIDTH 0 0
DWIDTH 26 0
BBX 21 18 0 -1
BITMAP
fffff800
fffff800
c0001800
c0001800
c0f81800
c15c1800
c18c1800
c18c1800
c0181800
c0201800
c0c01800
c1801800
c1fc1800
c1fc1800
c0001800
c0001800
fffff800
fffff800
ENDCHAR
STARTCHAR 3
ENCODING -1 51
SWIDTH 0 0
DWIDTH 26 0
BBX 21 18 0 -1
BITMAP
fffff800
fffff800
c0001800
c0001800
c0701800
c0f81800
c1981800
c0081800
c0381800
c0381800
c00c1800
c18c1800
c0f81800
c0781800
c0001800
c0001800
fffff800
fffff800
ENDCHAR
STARTCHAR 4
ENCODING -1 52
SWIDTH 0 0
DWIDTH 26 0
BBX 21 18 0 -1
BITMAP
fffff800
fffff800
c0001800
c0001800
c0181800
c0381800
c0581800
c0581800
c0981800
c19c1800
c1fc1800
c0181800
c0181800
c0181800
c0001800
c0001800
fffff800
fffff800
ENDCHAR
STARTCHAR 5
ENCODING -1 53
SWIDTH 0 0
DWIDTH 26 0
BBX 21 18 0 -1
BITMAP
fffff800
fffff800
c0001800
c0001800
c1f81800
c1f81800
c1801800
c1801800
c1f81800
c18c1800
c00c1800
c00c1800
c1fc1800
c0f81800
c0001800
c0001800
fffff800
fffff800
ENDCHAR
STARTCHAR 6
ENCODING -1 54
SWIDTH 0 0
DWIDTH 26 0
BBX 21 18 0 -1
BITMAP
fffff800
fffff800
c0001800
c0001800
c0f01800
c0f81800
c1881800
c1801800
c1b01800
c1d81800
c1981800
c1881800
c0f81800
c0701800
c0001800
c0001800
fffff800
fffff800
ENDCHAR
STARTCHAR 7
ENCODING -1 55
SWIDTH 0 0
DWIDTH 26 0
BBX 21 18 0 -1
BITMAP
fffff800
fffff800
c0001800
c0001800
c0fc1800
c0fc1800
c08c1800
c0081800
c0101800
c0301800
c0601800
c0601800
c0601800
c0601800
c0001800
c0001800
fffff800
fffff800
ENDCHAR
STARTCHAR 8
ENCODING -1 56
SWIDTH 0 0
DWIDTH 26 0
BBX 21 18 0 -1
BITMAP
fffff800
fffff800
c0001800
c0001800
c0701800
c0f81800
c18c1800
c18c1800
c0f81800
c0f81800
c18c1800
c18c1800
c1fc1800
c0f81800
c0001800
c0001800
fffff800
fffff800
ENDCHAR
STARTCHAR 9
ENCODING -1 57
SWIDTH 0 0
DWIDTH 26 0
BBX 21 18 0 -1
BITMAP
fffff800
fffff800
c0001800
c0001800
c0301800
c0781800
c0cc1800
c0cc1800
c0cc1800
c0fc1800
c02c1800
c00c1800
c0e81800
c0781800
c0001800
c0001800
fffff800
fffff800
ENDCHAR
STARTCHAR :
ENCODING -1 58
SWIDTH 0 0
DWIDTH 26 0
BBX 21 18 0 -1
BITMAP
fffff800
fffff800
c0001800
c0001800
c30c1800
c71e1800
c3331800
c3331800
c3331800
c3331800
c3331800
c3331800
c31e1800
c78c1800
c0001800
c0001800
fffff800
fffff800
ENDCHAR
STARTCHAR ;
ENCODING -1 59
SWIDTH 0 0
DWIDTH 26 0
BBX 21 18 0 -1
BITMAP
fffff800
fffff800
c0001800
c0001800
c1861800
c38e1800
c1861800
c1861800
c1861800
c1861800
c1861800
c1861800
c1861800
c3cf1800
c0001800
c0001800
fffff800
fffff800
ENDCHAR
STARTCHAR <
ENCODING -1 60
SWIDTH 0 0
DWIDTH 26 0
BBX 21 18 0 -1
BITMAP
fffff800
fffff800
c0001800
c0001800
c61f1800
ce2b9800
c6319800
c6319800
c6031800
c6041800
c6181800
c6301800
c63f9800
cf3f9800
c0001800
c0001800
fffff800
fffff800
ENDCHAR
STARTCHAR =
ENCODING -1 61
SWIDTH 0 0
DWIDTH 26 0
BBX 21 18 0 -1
BITMAP
fffff800
fffff800
c0001800
c0001800
c30e1800
c71f1800
c3331800
c3011800
c3071800
c3071800
c3019800
c3319800
c31f1800
c78f1800
c0001800
c0001800
fffff800
fffff800
ENDCHAR
STARTCHAR >
ENCODING -1 62
SWIDTH 0 0
DWIDTH 26 0
BBX 21 18 0 -1
BITMAP
fffff800
fffff800
c0001800
c0001800
c3031800
c7071800
c30b1800
c30b1800
c3131800
c3331800
c33f9800
c3031800
c3031800
c7831800
c0001800
c0001800
fffff800
fffff800
ENDCHAR
STARTCHAR ?
ENCODING -1 63
SWIDTH 0 0
DWIDTH 26 0
BBX 21 18 0 -1
BITMAP
fffff800
fffff800
c0001800
c0001800
c31f9800
c71f9800
c3101800
c31f1800
c3199800
c3019800
c3019800
c3119800
c31f1800
c78e1800
c0001800
c0001800
fffff800
fffff800
ENDCHAR
STARTCHAR @
ENCODING -1 64
SWIDTH 0 0
DWIDTH 26 0
BBX 21 18 0 -1
BITMAP
fffff800
fffff800
c0001800
c0001800
c30e1800
c70b1800
c3191800
c3101800
c31b1800
c31f9800
c3189800
c3199800
c31f9800
c78f1800
c0001800
c0001800
fffff800
fffff800
ENDCHAR
STARTCHAR A
ENCODING -1 65
SWIDTH 0 0
DWIDTH 26 0
BBX 21 18 0 -1
BITMAP
fffff800
fffff800
c0001800
c0001800
c31f9800
c71e9800
c3019800
c3011800
c3031800
c3041800
c30c1800
c30c1800
c30c1800
c78c1800
c0001800
c0001800
fffff800
fffff800
ENDCHAR
STARTCHAR B
ENCODING -1 66
SWIDTH 0 0
DWIDTH 26 0
BBX 21 18 0 -1
BITMAP
fffff800
fffff800
c0001800
c0001800
c3061800
c70f1800
c3199800
c3199800
c30f1800
c30f1800
c3199800
c3199800
c31f9800
c78f1800
c0001800
c0001800
fffff800
fffff800
ENDCHAR
STARTCHAR C
ENCODING -1 67
SWIDTH 0 0
DWIDTH 26 0
BBX 21 18 0 -1
BITMAP
fffff800
fffff800
c0001800
c0001800
c61e1800
ce3f1800
c6331800
c6331800
c6331800
c61f1800
c6051800
c6211800
c63f1800
cf1e1800
c0001800
c0001800
fffff800
fffff800
ENDCHAR
STARTCHAR D
ENCODING -1 68
SWIDTH 0 0
DWIDTH 26 0
BBX 21 18 0 -1
BITMAP
fffff800
fffff800
c0001800
c0001800
c7861800
cccf1800
ccd99800
c0d99800
c1999800
c2199800
c4199800
cc199800
cfcf1800
cfc61800
c0001800
c0001800
fffff800
fffff800
ENDCHAR
ENDFONT
